<svg xmlns="http://www.w3.org/2000/svg" viewBox="0 0 400 220" preserveAspectRatio="xMidYMid slice"><defs>
<filter id="gA2b" x="-5%" y="-5%" width="110%" height="110%">
 <feTurbulence type="fractalNoise" baseFrequency=".035" numOctaves="2" seed="16" result="n"/>
 <feDisplacementMap in="SourceGraphic" in2="n" scale="2.2" xChannelSelector="R" yChannelSelector="G"/>
</filter>
<filter id="tA2b"><feTurbulence type="fractalNoise" baseFrequency="1.1" numOctaves="3" seed="43"/>
 <feColorMatrix values="0 0 0 0 .1  0 0 0 0 .08  0 0 0 0 .05  0 0 0 0.66 -0.22"/></filter>
<filter id="bA2b"><feTurbulence type="fractalNoise" baseFrequency=".012 .09" numOctaves="2" seed="8"/>
 <feColorMatrix values="0 0 0 0 1  0 0 0 0 1  0 0 0 0 1  0 0 0 .5 -.2"/></filter>
<pattern id="rA2b" width="7" height="7" patternUnits="userSpaceOnUse" patternTransform="rotate(28)"><rect width="1.7" height="7" fill="#1c1b19"/></pattern>
</defs><g filter="url(#gA2b)"><rect x="0" y="0" width="400" height="220" rx="0" fill="#e3f1fa" opacity="1"/><rect x="0" y="170" width="400" height="50" rx="0" fill="#c79c6a" opacity="1"/><ellipse cx="200" cy="172" rx="60" ry="8" fill="#1c1b19" opacity="0.12" transform="rotate(0 200 172)"/><path d="M150 40h100l-12 134c0 4-4 6-8 6h-60c-4 0-8-2-8-6z" fill="#ffffff" opacity="0.55" /><path d="M154 70h92l-9 102c0 3-3 5-6 5h-62c-3 0-6-2-6-5z" fill="#9fd0ff" opacity="0.75" /><g transform="rotate(12 180 90)"><rect x="166" y="78" width="26" height="24" rx="4" fill="#ffffff" opacity="0.8"/></g><g transform="rotate(-10 220 110)"><rect x="206" y="100" width="24" height="22" rx="4" fill="#ffffff" opacity="0.75"/></g><circle cx="208.6" cy="151.9" r="2.6" fill="#ffffff" opacity="0.8"/><circle cx="231.0" cy="151.8" r="2.6" fill="#ffffff" opacity="0.8"/><circle cx="167.0" cy="132.6" r="1.5" fill="#ffffff" opacity="0.8"/><circle cx="210.4" cy="163.1" r="1.5" fill="#ffffff" opacity="0.8"/><circle cx="191.0" cy="160.8" r="2" fill="#ffffff" opacity="0.8"/><circle cx="203.1" cy="140.2" r="1.5" fill="#ffffff" opacity="0.8"/><circle cx="216.2" cy="128.6" r="1.5" fill="#ffffff" opacity="0.8"/><circle cx="229.1" cy="153.6" r="1.5" fill="#ffffff" opacity="0.8"/><circle cx="218.3" cy="105.0" r="2.6" fill="#ffffff" opacity="0.8"/><circle cx="208.2" cy="108.9" r="1.5" fill="#ffffff" opacity="0.8"/><circle cx="233.1" cy="100.4" r="1.5" fill="#ffffff" opacity="0.8"/><circle cx="232.2" cy="111.6" r="1.5" fill="#ffffff" opacity="0.8"/><circle cx="185.3" cy="167.3" r="2.6" fill="#ffffff" opacity="0.8"/><circle cx="226.3" cy="143.8" r="1.5" fill="#ffffff" opacity="0.8"/><circle cx="230.9" cy="148.3" r="2" fill="#ffffff" opacity="0.8"/><circle cx="185.9" cy="125.3" r="1.5" fill="#ffffff" opacity="0.8"/><circle cx="230.5" cy="118.5" r="2" fill="#ffffff" opacity="0.8"/><circle cx="186.1" cy="142.2" r="1.5" fill="#ffffff" opacity="0.8"/><path d="M238 50a26 26 0 0 1 32 34z" fill="#f2d34b" opacity="1" /><path d="M242 54a20 20 0 0 1 24 26z" fill="#fbe98a" opacity="1" /><polyline points="214,26 204,150" fill="none" stroke="#e0574b" stroke-width="6" stroke-linecap="round" stroke-linejoin="round" opacity="1"/><path d="M0 170h400v50H0z" fill="url(#rA2b)" opacity="0.18"/></g><rect width="400" height="220" filter="url(#bA2b)" opacity=".35"/><rect width="400" height="220" filter="url(#tA2b)"/></svg>