<svg xmlns="http://www.w3.org/2000/svg" viewBox="0 0 400 220" preserveAspectRatio="xMidYMid slice"><defs>
<filter id="gP2a" x="-5%" y="-5%" width="110%" height="110%">
 <feTurbulence type="fractalNoise" baseFrequency=".035" numOctaves="2" seed="91" result="n"/>
 <feDisplacementMap in="SourceGraphic" in2="n" scale="2.2" xChannelSelector="R" yChannelSelector="G"/>
</filter>
<filter id="tP2a"><feTurbulence type="fractalNoise" baseFrequency="1.1" numOctaves="3" seed="14"/>
 <feColorMatrix values="0 0 0 0 .1  0 0 0 0 .08  0 0 0 0 .05  0 0 0 0.66 -0.22"/></filter>
<filter id="bP2a"><feTurbulence type="fractalNoise" baseFrequency=".012 .09" numOctaves="2" seed="28"/>
 <feColorMatrix values="0 0 0 0 1  0 0 0 0 1  0 0 0 0 1  0 0 0 .5 -.2"/></filter>
<pattern id="rP2a" width="7" height="7" patternUnits="userSpaceOnUse" patternTransform="rotate(28)"><rect width="1.7" height="7" fill="#1c1b19"/></pattern>
</defs><g filter="url(#gP2a)"><rect x="0" y="0" width="400" height="220" rx="0" fill="#f1ebdf" opacity="1"/><rect x="140" y="14" width="120" height="196" rx="20" fill="#1c1b19" opacity="1"/><rect x="148" y="26" width="104" height="172" rx="12" fill="#ececec" opacity="1"/><rect x="160" y="40" width="22" height="22" rx="6" fill="#9a9a9a" opacity="1"/><rect x="190" y="40" width="22" height="22" rx="6" fill="#b5b5b5" opacity="1"/><rect x="220" y="40" width="22" height="22" rx="6" fill="#7d7d7d" opacity="1"/><rect x="160" y="76" width="22" height="22" rx="6" fill="#b5b5b5" opacity="1"/><rect x="190" y="76" width="22" height="22" rx="6" fill="#7d7d7d" opacity="1"/><rect x="220" y="76" width="22" height="22" rx="6" fill="#c9c9c9" opacity="1"/><rect x="160" y="112" width="22" height="22" rx="6" fill="#7d7d7d" opacity="1"/><rect x="190" y="112" width="22" height="22" rx="6" fill="#c9c9c9" opacity="1"/><rect x="220" y="112" width="22" height="22" rx="6" fill="#9a9a9a" opacity="1"/><rect x="160" y="148" width="22" height="22" rx="6" fill="#c9c9c9" opacity="1"/><rect x="190" y="148" width="22" height="22" rx="6" fill="#9a9a9a" opacity="1"/><rect x="220" y="148" width="22" height="22" rx="6" fill="#b5b5b5" opacity="1"/><rect x="184" y="190" width="32" height="4" rx="2" fill="#555" opacity="1"/><path d="M148 26h104v172H148z" fill="url(#rP2a)" opacity="0.12"/></g><rect width="400" height="220" filter="url(#bP2a)" opacity=".35"/><rect width="400" height="220" filter="url(#tP2a)"/></svg>