<svg xmlns="http://www.w3.org/2000/svg" viewBox="0 0 400 220" preserveAspectRatio="xMidYMid slice"><defs>
<filter id="gP3a" x="-5%" y="-5%" width="110%" height="110%">
 <feTurbulence type="fractalNoise" baseFrequency=".035" numOctaves="2" seed="21" result="n"/>
 <feDisplacementMap in="SourceGraphic" in2="n" scale="1.6" xChannelSelector="R" yChannelSelector="G"/>
</filter>
<filter id="tP3a"><feTurbulence type="fractalNoise" baseFrequency="1.1" numOctaves="3" seed="12"/>
 <feColorMatrix values="0 0 0 0 .1  0 0 0 0 .08  0 0 0 0 .05  0 0 0 0.18 -0.06"/></filter>
<filter id="bP3a"><feTurbulence type="fractalNoise" baseFrequency=".012 .09" numOctaves="2" seed="9"/>
 <feColorMatrix values="0 0 0 0 1  0 0 0 0 1  0 0 0 0 1  0 0 0 .5 -.2"/></filter>
<pattern id="rP3a" width="7" height="7" patternUnits="userSpaceOnUse" patternTransform="rotate(28)"><rect width="1.7" height="7" fill="#1c1b19"/></pattern>
</defs><g transform="translate(-5 -4) scale(1.025 1.036)"><g filter="url(#gP3a)"><linearGradient id="dP3a" x1="0" y1="0" x2="0" y2="1"><stop offset="0" stop-color="#fbd3a8"/><stop offset="1" stop-color="#f39a52"/></linearGradient><rect width="400" height="220" fill="url(#dP3a)"/><rect x="-10" y="222" width="56" height="220" rx="0" fill="#c9563f" opacity="0.35"/><rect x="-10" y="196" width="56" height="28" rx="4" fill="#1c1b19" opacity="1"/><rect x="-6" y="199" width="48" height="20" rx="2" fill="#6fa8ff" opacity="0.8"/><path d="M14 204l8 5-8 5z" fill="#fff" opacity="1" /><rect x="40" y="194" width="56" height="220" rx="0" fill="#c9563f" opacity="0.35"/><rect x="40" y="168" width="56" height="28" rx="4" fill="#1c1b19" opacity="1"/><rect x="44" y="171" width="48" height="20" rx="2" fill="#6fa8ff" opacity="0.8"/><path d="M64 176l8 5-8 5z" fill="#fff" opacity="1" /><rect x="90" y="166" width="56" height="220" rx="0" fill="#c9563f" opacity="0.35"/><rect x="90" y="140" width="56" height="28" rx="4" fill="#1c1b19" opacity="1"/><rect x="94" y="143" width="48" height="20" rx="2" fill="#6fa8ff" opacity="0.8"/><path d="M114 148l8 5-8 5z" fill="#fff" opacity="1" /><rect x="140" y="138" width="56" height="220" rx="0" fill="#c9563f" opacity="0.35"/><rect x="140" y="112" width="56" height="28" rx="4" fill="#1c1b19" opacity="1"/><rect x="144" y="115" width="48" height="20" rx="2" fill="#6fa8ff" opacity="0.8"/><path d="M164 120l8 5-8 5z" fill="#fff" opacity="1" /><rect x="190" y="110" width="56" height="220" rx="0" fill="#c9563f" opacity="0.35"/><rect x="190" y="84" width="56" height="28" rx="4" fill="#1c1b19" opacity="1"/><rect x="194" y="87" width="48" height="20" rx="2" fill="#6fa8ff" opacity="0.8"/><path d="M214 92l8 5-8 5z" fill="#fff" opacity="1" /><rect x="240" y="82" width="56" height="220" rx="0" fill="#c9563f" opacity="0.35"/><rect x="240" y="56" width="56" height="28" rx="4" fill="#1c1b19" opacity="1"/><rect x="244" y="59" width="48" height="20" rx="2" fill="#6fa8ff" opacity="0.8"/><path d="M264 64l8 5-8 5z" fill="#fff" opacity="1" /><rect x="290" y="54" width="56" height="220" rx="0" fill="#c9563f" opacity="0.35"/><rect x="290" y="28" width="56" height="28" rx="4" fill="#1c1b19" opacity="1"/><rect x="294" y="31" width="48" height="20" rx="2" fill="#6fa8ff" opacity="0.8"/><path d="M314 36l8 5-8 5z" fill="#fff" opacity="1" /><rect x="340" y="26" width="56" height="220" rx="0" fill="#c9563f" opacity="0.35"/><rect x="340" y="0" width="56" height="28" rx="4" fill="#1c1b19" opacity="1"/><rect x="344" y="3" width="48" height="20" rx="2" fill="#6fa8ff" opacity="0.8"/><path d="M364 8l8 5-8 5z" fill="#fff" opacity="1" /><rect x="390" y="-2" width="56" height="220" rx="0" fill="#c9563f" opacity="0.35"/><rect x="390" y="-28" width="56" height="28" rx="4" fill="#1c1b19" opacity="1"/><rect x="394" y="-25" width="48" height="20" rx="2" fill="#6fa8ff" opacity="0.8"/><path d="M414 -20l8 5-8 5z" fill="#fff" opacity="1" /><g opacity=".82"><polyline points="218.0,61.5 221.6,69.4" fill="none" stroke="#5a2414" stroke-width="2.5" stroke-linecap="round" stroke-linejoin="round"/><polyline points="218.7,54.5 218.2,59.8" fill="none" stroke="#5a2414" stroke-width="3.1" stroke-linecap="round" stroke-linejoin="round"/><circle cx="221.6" cy="69.4" r="1.7" fill="#5a2414"/></g><g opacity=".82"><polyline points="216.1,68.9 212.2,77.7 207.2,84.6" fill="none" stroke="#5a2414" stroke-width="4.1" stroke-linecap="round" stroke-linejoin="round"/><g transform="translate(207.2 84.6) rotate(24)"><path d="M-1.6 -1.8h3.2c3.2 0 4.7 2.0 4.7 3.4h-8.3c0-1.6 0-3.4 0.4-3.4z" fill="#5a2414"/></g></g><path d="M216.1 68.9L211.1 68.5" stroke="#5a2414" stroke-width="4.3" stroke-linecap="round"/><polyline points="211.1,68.5 217.2,77.4 220.8,86.0" fill="none" stroke="#5a2414" stroke-width="4.1" stroke-linecap="round" stroke-linejoin="round"/><g transform="translate(220.8 86.0) rotate(0)"><path d="M-1.6 -1.8h3.2c3.2 0 4.7 2.0 4.7 3.4h-8.3c0-1.6 0-3.4 0.4-3.4z" fill="#5a2414"/></g><polyline points="215.1,52.9 215.2,51.1" fill="none" stroke="#5a2414" stroke-width="2.5" stroke-linecap="round" stroke-linejoin="round"/><path d="M211.2 53.8L218.7 54.5L216.1 69.8L211.0 69.4Z" fill="#5a2414" stroke="#5a2414" stroke-width="2.7" stroke-linejoin="round"/><polyline points="211.5,61.9 208.6,70.2" fill="none" stroke="#5a2414" stroke-width="2.5" stroke-linecap="round" stroke-linejoin="round"/><polyline points="211.2,53.8 211.4,59.9" fill="none" stroke="#5a2414" stroke-width="3.1" stroke-linecap="round" stroke-linejoin="round"/><circle cx="208.6" cy="70.2" r="1.7" fill="#5a2414"/><g transform="rotate(0 215.8 47.839999999999996)"><ellipse cx="215.8" cy="47.8" rx="3.3" ry="3.6" fill="#5a2414"/><ellipse cx="215.4" cy="48.3" rx="0.6" ry="0.9" fill="#5a2414"/></g><path d="M212.2 47.5L212.4 44.8L213.6 45.2L213.8 42.3L215.2 44.2L216.2 41.5L217.1 44.1L218.7 42.6L218.5 45.2L220.3 45.6L219.4 47.5Z" fill="#5a2414"/><path d="M0 0h120L0 120z" fill="url(#rP3a)" opacity="0.2"/></g></g><rect width="400" height="220" filter="url(#bP3a)" opacity=".1"/><rect width="400" height="220" filter="url(#tP3a)"/></svg>