<svg xmlns="http://www.w3.org/2000/svg" viewBox="0 0 400 220" preserveAspectRatio="xMidYMid slice"><defs>
<filter id="gS1a" x="-5%" y="-5%" width="110%" height="110%">
 <feTurbulence type="fractalNoise" baseFrequency=".035" numOctaves="2" seed="24" result="n"/>
 <feDisplacementMap in="SourceGraphic" in2="n" scale="1.6" xChannelSelector="R" yChannelSelector="G"/>
</filter>
<filter id="tS1a"><feTurbulence type="fractalNoise" baseFrequency="1.1" numOctaves="3" seed="40"/>
 <feColorMatrix values="0 0 0 0 .1  0 0 0 0 .08  0 0 0 0 .05  0 0 0 0.18 -0.06"/></filter>
<filter id="bS1a"><feTurbulence type="fractalNoise" baseFrequency=".012 .09" numOctaves="2" seed="23"/>
 <feColorMatrix values="0 0 0 0 1  0 0 0 0 1  0 0 0 0 1  0 0 0 .5 -.2"/></filter>
<pattern id="rS1a" width="7" height="7" patternUnits="userSpaceOnUse" patternTransform="rotate(28)"><rect width="1.7" height="7" fill="#1c1b19"/></pattern>
</defs><g transform="translate(-5 -4) scale(1.025 1.036)"><g filter="url(#gS1a)"><rect x="0" y="0" width="400" height="220" rx="0" fill="#efe3cf" opacity="1"/><path d="M120 40c60-30 160-20 180 40 20 60-20 120-90 130S70 170 80 110c4-30 14-54 40-70z" fill="#6b4fd8" opacity="1" /><rect x="130" y="70" width="60" height="10" rx="2" fill="#f4e3c6" opacity="1"/><rect x="134" y="52" width="7" height="18" rx="1" fill="#f3a33a" opacity="1"/><rect x="144" y="52" width="7" height="18" rx="1" fill="#2f8fd8" opacity="1"/><rect x="154" y="52" width="7" height="18" rx="1" fill="#e0574b" opacity="1"/><rect x="164" y="52" width="7" height="18" rx="1" fill="#5fb37a" opacity="1"/><rect x="174" y="52" width="7" height="18" rx="1" fill="#1c1b19" opacity="1"/><rect x="150" y="95" width="90" height="10" rx="2" fill="#f4e3c6" opacity="1"/><rect x="154" y="77" width="7" height="18" rx="1" fill="#2f8fd8" opacity="1"/><rect x="164" y="77" width="7" height="18" rx="1" fill="#e0574b" opacity="1"/><rect x="174" y="77" width="7" height="18" rx="1" fill="#5fb37a" opacity="1"/><rect x="184" y="77" width="7" height="18" rx="1" fill="#1c1b19" opacity="1"/><rect x="194" y="77" width="7" height="18" rx="1" fill="#f3a33a" opacity="1"/><rect x="140" y="120" width="70" height="10" rx="2" fill="#f4e3c6" opacity="1"/><rect x="144" y="102" width="7" height="18" rx="1" fill="#e0574b" opacity="1"/><rect x="154" y="102" width="7" height="18" rx="1" fill="#5fb37a" opacity="1"/><rect x="164" y="102" width="7" height="18" rx="1" fill="#1c1b19" opacity="1"/><rect x="174" y="102" width="7" height="18" rx="1" fill="#f3a33a" opacity="1"/><rect x="184" y="102" width="7" height="18" rx="1" fill="#2f8fd8" opacity="1"/><rect x="160" y="145" width="80" height="10" rx="2" fill="#f4e3c6" opacity="1"/><rect x="164" y="127" width="7" height="18" rx="1" fill="#5fb37a" opacity="1"/><rect x="174" y="127" width="7" height="18" rx="1" fill="#1c1b19" opacity="1"/><rect x="184" y="127" width="7" height="18" rx="1" fill="#f3a33a" opacity="1"/><rect x="194" y="127" width="7" height="18" rx="1" fill="#2f8fd8" opacity="1"/><rect x="204" y="127" width="7" height="18" rx="1" fill="#e0574b" opacity="1"/><g transform="rotate(-18 300 60)"><rect x="290" y="40" width="10" height="26" rx="1" fill="#f3a33a" opacity="1"/></g><g transform="rotate(14 90 90)"><rect x="80" y="70" width="10" height="26" rx="1" fill="#2f8fd8" opacity="1"/></g><path d="M120 40c60-30 160-20 180 40 6 18 6 36 0 52L120 40z" fill="url(#rS1a)" opacity="0.3"/></g></g><rect width="400" height="220" filter="url(#bS1a)" opacity=".1"/><rect width="400" height="220" filter="url(#tS1a)"/></svg>