<svg xmlns="http://www.w3.org/2000/svg" viewBox="0 0 400 220" preserveAspectRatio="xMidYMid slice"><defs>
<filter id="gS2b" x="-5%" y="-5%" width="110%" height="110%">
 <feTurbulence type="fractalNoise" baseFrequency=".035" numOctaves="2" seed="5" result="n"/>
 <feDisplacementMap in="SourceGraphic" in2="n" scale="1.6" xChannelSelector="R" yChannelSelector="G"/>
</filter>
<filter id="tS2b"><feTurbulence type="fractalNoise" baseFrequency="1.1" numOctaves="3" seed="11"/>
 <feColorMatrix values="0 0 0 0 .1  0 0 0 0 .08  0 0 0 0 .05  0 0 0 0.18 -0.06"/></filter>
<filter id="bS2b"><feTurbulence type="fractalNoise" baseFrequency=".012 .09" numOctaves="2" seed="7"/>
 <feColorMatrix values="0 0 0 0 1  0 0 0 0 1  0 0 0 0 1  0 0 0 .5 -.2"/></filter>
<pattern id="rS2b" width="7" height="7" patternUnits="userSpaceOnUse" patternTransform="rotate(28)"><rect width="1.7" height="7" fill="#9aa0ff"/></pattern>
</defs><g transform="translate(-5 -4) scale(1.025 1.036)"><g filter="url(#gS2b)"><rect x="0" y="0" width="400" height="220" rx="0" fill="#141742" opacity="1"/><path d="M0 150h400v70H0z" fill="#20245a" opacity="1" /><radialGradient id="lgS2b"><stop offset="0" stop-color="#ffd98a" stop-opacity=".55"/><stop offset="1" stop-color="#ffd98a" stop-opacity="0"/></radialGradient><circle cx="214" cy="100" r="90" fill="url(#lgS2b)" opacity="1"/><rect x="30" y="110" width="130" height="44" rx="6" fill="#3b3f86" opacity="1"/><rect x="38" y="100" width="40" height="18" rx="6" fill="#f4e3c6" opacity="1"/><rect x="76" y="104" width="80" height="20" rx="6" fill="#6b4fd8" opacity="1"/><rect x="186" y="124" width="76" height="10" rx="2" fill="#5a4a3a" opacity="1"/><rect x="190" y="134" width="68" height="30" rx="0" fill="#4a3c30" opacity="1"/><rect x="194" y="140" width="60" height="3" rx="0" fill="#3a2f26" opacity="1"/><ellipse cx="208" cy="123" rx="10" ry="3" fill="#2e2620" opacity="1" transform="rotate(0 208 123)"/><rect x="206.5" y="96" width="3" height="27" rx="0" fill="#2e2620" opacity="1"/><path d="M192 100h32l-6-22h-20z" fill="#f6d08a" opacity="1" /><path d="M192 100h32l-2-6h-28z" fill="#e7b866" opacity="1" /><path d="M226 123l12-4 12 4-12 2z" fill="#f4e3c6" opacity="1" /><polyline points="238,119 238,125" fill="none" stroke="#1c1b19" stroke-width="1" stroke-linecap="round" stroke-linejoin="round" opacity="1"/><rect x="300" y="130" width="60" height="30" rx="3" fill="#5a4a3a" opacity="1"/><rect x="320" y="112" width="18" height="26" rx="3" fill="#1c1b19" opacity="1"/><rect x="322" y="115" width="14" height="18" rx="2" fill="#6fa8ff" opacity="0.6"/><polyline points="338,128 350,150 350,160" fill="none" stroke="#888" stroke-width="2" stroke-linecap="round" stroke-linejoin="round" opacity="1"/><path d="M0 150h400v70H0z" fill="url(#rS2b)" opacity="0.18"/></g></g><rect width="400" height="220" filter="url(#bS2b)" opacity=".1"/><rect width="400" height="220" filter="url(#tS2b)"/></svg>